<?xml version="1.0" encoding="iso-8859-1"?>
<!-- Generator: Adobe Illustrator 17.1.0, SVG Export Plug-In . SVG Version: 6.00 Build 0)  -->
<!DOCTYPE svg PUBLIC "-//W3C//DTD SVG 1.1//EN" "http://www.w3.org/Graphics/SVG/1.1/DTD/svg11.dtd">
<svg version="1.1" id="Capa_1" xmlns="http://www.w3.org/2000/svg" xmlns:xlink="http://www.w3.org/1999/xlink" x="0px" y="0px"
	 viewBox="0 0 442 442" style="enable-background:new 0 0 442 442;" xml:space="preserve">
<g>
	<path d="M412,127.478H307.667c-4.227-25.087-24.081-44.925-49.167-49.153V28.522c0-5.523-4.478-10-10-10h-55
		c-5.522,0-10,4.477-10,10v49.803c-25.086,4.228-44.94,24.067-49.167,49.153H30c-16.542,0-30,13.458-30,30v236
		c0,16.542,13.458,30,30,30h382c16.542,0,30-13.458,30-30v-236C442,140.936,428.542,127.478,412,127.478z M203.5,38.522h35v73.956
		h-35V38.522z M422,393.478c0,5.514-4.486,10-10,10H30c-5.514,0-10-4.486-10-10v-236c0-5.514,4.486-10,10-10h113.5
		c5.522,0,10-4.477,10-10c0-18.604,12.767-34.282,30-38.734v13.734c-5.522,0-10,4.477-10,10s4.478,10,10,10h75
		c5.522,0,10-4.477,10-10s-4.478-10-10-10V98.744c17.233,4.452,30,20.13,30,38.734c0,5.523,4.478,10,10,10H412
		c5.514,0,10,4.486,10,10V393.478z"/>
	<path d="M98.612,307.478c0,5.523,4.478,10,10,10h64c5.522,0,10-4.477,10-10s-4.478-10-10-10h-64
		C103.09,297.478,98.612,301.955,98.612,307.478z"/>
	<path d="M170.612,257.478c0-16.542-13.458-30-30-30s-30,13.458-30,30s13.458,30,30,30S170.612,274.02,170.612,257.478z
		 M130.612,257.478c0-5.514,4.486-10,10-10s10,4.486,10,10s-4.486,10-10,10S130.612,262.992,130.612,257.478z"/>
	<path d="M212.612,193.478h-144c-5.522,0-10,4.477-10,10v144c0,5.523,4.478,10,10,10h144c5.522,0,10-4.477,10-10v-78
		c0-5.523-4.478-10-10-10s-10,4.477-10,10v68h-124v-124h124v21.892c0,5.523,4.478,10,10,10s10-4.477,10-10v-31.892
		C222.612,197.955,218.135,193.478,212.612,193.478z"/>
	<path d="M373.388,314.247h-93.923c-5.522,0-10,4.477-10,10s4.478,10,10,10h93.923c5.522,0,10-4.477,10-10
		S378.91,314.247,373.388,314.247z"/>
	<path d="M373.388,216.71h-93.923c-5.522,0-10,4.477-10,10s4.478,10,10,10h93.923c5.522,0,10-4.477,10-10
		S378.91,216.71,373.388,216.71z"/>
	<path d="M373.388,264.247h-93.923c-5.522,0-10,4.477-10,10s4.478,10,10,10h93.923c5.522,0,10-4.477,10-10
		S378.91,264.247,373.388,264.247z"/>
	<path d="M221,69.522c5.79,0,10.5-4.71,10.5-10.5s-4.71-10.5-10.5-10.5s-10.5,4.71-10.5,10.5S215.21,69.522,221,69.522z"/>
</g>
<g>
</g>
<g>
</g>
<g>
</g>
<g>
</g>
<g>
</g>
<g>
</g>
<g>
</g>
<g>
</g>
<g>
</g>
<g>
</g>
<g>
</g>
<g>
</g>
<g>
</g>
<g>
</g>
<g>
</g>
</svg>
